
<svg width="20px" height="16px" viewBox="0 0 28 22" version="1.1" xmlns="http://www.w3.org/2000/svg" xmlns:xlink="http://www.w3.org/1999/xlink">
    <!-- Generator: Sketch 51.3 (57544) - http://www.bohemiancoding.com/sketch -->
    <desc>Created with Sketch.</desc>
    <defs></defs>
    <g id="Page-1" stroke="none" stroke-width="1" fill="none" fill-rule="evenodd">
        <g id="menu-icon" fill="#FFFFFF" fill-rule="nonzero">
            <path d="M2,3 L26,3 C27.104,3 28,2.328 28,1.5 C28,0.672 27.104,0 26,0 L2,0 C0.896,0 0,0.672 0,1.5 C0,2.328 0.896,3 2,3 Z M26,9.5 L2,9.5 C0.896,9.5 0,10.172 0,11 C0,11.828 0.896,12.5 2,12.5 L26,12.5 C27.104,12.5 28,11.828 28,11 C28,10.172 27.104,9.5 26,9.5 Z M26,19 L2,19 C0.896,19 0,19.672 0,20.5 C0,21.328 0.896,22 2,22 L26,22 C27.104,22 28,21.328 28,20.5 C28,19.672 27.104,19 26,19 Z" id="Shape"></path>
        </g>
    </g>
</svg>
